PathFileType	4	(X/Y/Z)	C:/Users/beibeiliu/ov580/test_trc/User2\sequence.33_training_dense_left.trc
DataRate	CameraRate	NumFrames	NumMarkers	Units	OrigDataRate	OrigDataStartFrame	OrigNumFrames
120	120	11	19	mm	120	160	424
Frame#	Time	ThumbCMC			ThumbMCP			ThumbIP			ThumbTip			IndexMCP			IndexPIP			IndexTip			MiddleMCP			MiddlePIP			MiddleTip			RingMCP			RingPIP			RingTip			PinkyMCP			PinkyPIP			PinkyTip			BackHand1			BackHand2			BackHand3	
		X0	Y0	Z0	X1	Y1	Z1	X2	Y2	Z2	X3	Y3	Z3	X4	Y4	Z4	X5	Y5	Z5	X6	Y6	Z6	X7	Y7	Z7	X8	Y8	Z8	X9	Y9	Z9	X10	Y10	Z10	X11	Y11	Z11	X12	Y12	Z12	X13	Y13	Z13	X14	Y14	Z14	X15	Y15	Z15	X16	Y16	Z16	X17	Y17	Z17	X18	Y18	Z18	
159	1.325	-241.033	-38.2649	46.7753	-218.75	-24.6873	20.5834	-192.447	-21.4872	-2.08868	-167.313	-29.5882	-10.3994	-188.682	-73.202	-5.49919	-161.068	-52.8136	7.30067	-177.667	-42.6373	33.6424	-173.146	-92.2674	10.2214	-148.403	-65.2618	23.3199	-170.273	-43.8154	49.4157	-161.021	-96.484	30.7955	-149.99	-66.8389	39.3695	-177.673	-54.2708	59.0702	-160.832	-99.4469	48.2691	-155.488	-69.4697	59.3114	-180.126	-56.057	72.1674	-220.697	-111.778	56.9566	-242.635	-103.572	80.4822	-245.235	-83.725	46.1578	
160	1.33333	-241.324	-39.8542	48.6718	-220.706	-25.7628	23.2225	-193.784	-19.7808	-1.3414	-166.462	-30.4587	-12.694	-185.676	-76.5131	-3.89387	-161.977	-55.5486	5.12954	-181.836	-40.3181	34.7342	-172.158	-89.8914	8.11329	-150.23	-64.1273	21.5672	-172.416	-43.6454	51.0548	-164.381	-96.8418	29.099	-149.483	-67.1283	44.4475	-175.923	-54.8593	60.1213	-161.464	-101.488	50.7727	-155.064	-67.2462	62.8135	-184.525	-56.4064	72.7241	-220.51	-110.374	51.8033	-243.797	-99.3521	79.3296	-249.266	-81.4238	46.2126	
161	1.34167	-241.735	-40.6103	47.786	-221.13	-23.1218	21.931	-193.482	-21.4485	-0.669489	-168.14	-29.1342	-12.4193	-188.847	-74.2016	-5.14452	-162.977	-55.3882	3.05003	-181.932	-42.4844	35.2249	-175.437	-92.1598	10.958	-149.484	-66.8487	22.7105	-169.161	-44.5931	50.5815	-161.104	-97.0234	29.8709	-150.704	-68.6447	39.6264	-178.849	-55.3257	61.3925	-163.041	-102.455	50.8998	-154.922	-70.5833	58.7345	-179.942	-57.7669	75.7547	-219.215	-111.204	53.8333	-240.812	-103.73	80.9602	-245.988	-84.9452	47.3332	
162	1.35	-241.133	-41.8308	46.8329	-220.545	-25.1604	21.5457	-195.293	-18.4936	0.185849	-170.584	-28.3749	-9.65017	-188.19	-74.6009	-6.03475	-161.52	-55.6405	9.03212	-182.136	-41.618	36.0667	-172.142	-91.5016	9.09238	-150.022	-62.3083	21.4128	-169.607	-42.5567	48.1815	-161.024	-93.8006	28.0129	-150.031	-70.0941	41.6713	-176.089	-54.9555	60.7113	-160.164	-101.486	49.236	-152.941	-70.6413	62.2524	-182.99	-57.422	76.3823	-220.766	-111.238	55.2932	-242.275	-103.158	79.0856	-249.589	-80.6215	46.1942	
163	1.35833	-240.864	-40.4722	44.6904	-221.942	-25.3776	24.1944	-192.538	-21.4942	-2.83271	-169.147	-28.0133	-10.3838	-186.64	-74.9594	-4.7881	-160.963	-56.6955	8.13561	-178.568	-42.3867	34.4181	-172.881	-90.4023	8.09604	-149.272	-67.7991	21.8815	-168.053	-43.5907	47.1739	-163.584	-97.4987	29.1981	-149.021	-71.0412	38.8431	-177.742	-53.9342	57.9641	-163.34	-101.385	48.3513	-153.795	-71.0423	59.0237	-178.026	-59.3313	74.0299	-221.929	-112.7	55.2606	-244.973	-100.262	79.1027	-249.039	-79.6138	46.966	
164	1.36667	-239.049	-41.9833	44.7378	-220.411	-25.5727	23.8368	-192.329	-23.9888	0.444769	-168.251	-29.1002	-11.5572	-184.208	-73.8977	-6.55287	-160.38	-54.899	5.74273	-177.204	-43.2321	33.2578	-174.677	-90.5858	7.00285	-148.764	-66.1653	22.4853	-169.786	-45.5218	50.782	-162.368	-96.9267	28.4082	-147.165	-72.1327	42.4352	-174.201	-55.24	57.7239	-162.334	-103.694	50.3487	-155.48	-69.8511	58.4289	-183.376	-58.138	71.7065	-219.957	-111.519	55.492	-243.781	-103.072	82.0676	-246.693	-82.5543	43.5079	
165	1.375	-239.613	-41.5562	43.2276	-219.504	-28.0692	23.542	-191.103	-24.1743	-0.8397	-166.965	-32.0158	-9.44229	-187.057	-75.7728	-5.81622	-159.605	-58.1154	9.02053	-177.057	-45.5752	35.9779	-171.278	-92.7011	9.98454	-147.8	-65.2804	24.2294	-169.044	-43.97	48.2259	-162.133	-95.1038	26.8245	-148.67	-68.9778	42.0716	-174.964	-55.1499	58.7844	-161.255	-100.962	47.9988	-152.248	-73.1179	62.6833	-180.687	-61.601	72.4437	-220.533	-114.587	55.5722	-243.628	-103.747	77.2551	-246.073	-86.0426	45.8595	
166	1.38333	-239.764	-40.8488	43.2257	-219.443	-25.7992	22.2843	-192.15	-21.2637	-3.0544	-167.232	-33.9745	-6.93994	-187.235	-77.1289	-4.16906	-159.511	-58.145	7.71523	-179.643	-40.9757	34.1528	-169.106	-92.812	8.5457	-147.809	-66.1968	23.407	-169.136	-45.52	50.2392	-160.574	-100.281	31.3635	-148.264	-71.6499	41.2676	-173.176	-57.901	62.253	-157.932	-101.628	51.9257	-156.514	-70.3459	61.4009	-181.728	-61.6311	76.2748	-220.124	-115.279	57.5048	-243.942	-101.85	79.44	-245.487	-82.6392	43.353	
167	1.39167	-241.146	-40.5123	46.6557	-217.157	-28.6105	21.8766	-193.368	-20.3343	0.0850324	-164.994	-31.8267	-9.54168	-183.054	-78.0822	-5.48727	-158.837	-59.6044	8.4334	-177.874	-44.3742	34.8874	-169.685	-95.1689	11.4663	-147.584	-69.4573	22.8048	-168.968	-48.4074	52.3511	-163.674	-99.4407	30.2488	-147.183	-71.8304	43.2996	-175.405	-57.4074	62.9983	-161.373	-102.94	50.5149	-153.749	-72.8401	64.4637	-181.079	-61.612	78.3512	-219.071	-115.748	56.1286	-242.461	-102.754	81.4536	-244.48	-83.6088	44.0582	
168	1.4	-237.002	-44.0122	45.2952	-218.495	-26.9316	25.4057	-189.666	-25.021	1.81326	-164.428	-30.2242	-10.017	-184.181	-78.961	-4.43008	-158.019	-60.6892	8.91914	-175.389	-45.1424	36.0077	-169.542	-93.2979	10.2896	-146.822	-68.9974	23.8001	-170.932	-46.0741	52.4403	-157.833	-96.8319	31.536	-149.135	-69.8093	42.1666	-173.829	-56.8968	60.1958	-159.801	-102.737	52.7024	-155.806	-69.5718	63.2328	-182.004	-61.7393	73.6444	-219.275	-113.888	58.0678	-240.346	-104.477	82.6285	-247.144	-84.5428	45.8108	
169	1.40833	-239.904	-39.0342	46.5242	-215.399	-30.3857	24.1723	-188.678	-26.6671	1.91558	-165.597	-30.389	-6.59242	-183.586	-79.0535	-4.17756	-157.831	-58.8107	5.54833	-172.885	-43.2157	32.2437	-169.589	-95.9731	13.1344	-147.483	-65.518	23.5773	-166.663	-46.1686	50.0641	-161.496	-99.6427	31.8332	-145.678	-72.5614	46.417	-177.209	-56.6218	65.3671	-160.293	-100.67	51.0331	-154.849	-71.6437	67.0398	-182.709	-62.4421	77.076	-219.428	-111.928	57.4488	-244.178	-102.71	81.2977	-245.236	-85.8286	46.7056	
